<?xml version="1.0" encoding="UTF-8" standalone="no"?>
<svg
   xmlns:dc="http://purl.org/dc/elements/1.1/"
   xmlns:cc="http://creativecommons.org/ns#"
   xmlns:rdf="http://www.w3.org/1999/02/22-rdf-syntax-ns#"
   xmlns:svg="http://www.w3.org/2000/svg"
   xmlns="http://www.w3.org/2000/svg"
   viewBox="0 0 1365.3333 1365.3333"
   height="1365.3333"
   width="1365.3333"
   xml:space="preserve"
   id="svg2"
   version="1.1"><metadata
     id="metadata8"><rdf:RDF><cc:Work
         rdf:about=""><dc:format>image/svg+xml</dc:format><dc:type
           rdf:resource="http://purl.org/dc/dcmitype/StillImage" /></cc:Work></rdf:RDF></metadata><defs
     id="defs6"><clipPath
       id="clipPath18"
       clipPathUnits="userSpaceOnUse"><path
         id="path16"
         d="m 892.725,962.266 c 0.407,-10.274 2.176,-22.809 5.772,-38.056 v 0 c 11.282,-64.549 37.794,-111.503 13.578,-172.501 v 0 c -16.299,-41.055 1.348,-109.227 -6.445,-151.024 v 0 c -3.084,-13.837 -6.665,-27.487 -10.716,-40.937 v 0 C 822,317.647 597.319,141.31 331.454,141.314 v 0 c -39.578,0 -78.248,3.906 -115.631,11.364 v 0 c -12.465,2.481 -24.785,5.357 -36.946,8.622 v 0 c -51.61,14.616 -95.672,44.411 -133.864,83.392 v 0 c -1.346,2.692 6.743,4.039 0,6.742 v 0 c -1.544,0.77 -3.974,0.658 -6.731,0.545 v 0 c -2.056,-0.083 -4.295,-0.166 -6.485,0.116 v 0 c 0,0 -2.947,1.427 -4.468,1.115 v 0 C 12.652,241.993 9.954,221.765 16.701,206.932 v 0 c 1.342,-4.045 8.09,-4.045 10.784,-8.092 v 0 c 6.052,-10.265 9.889,-19.846 18.735,-30.364 v 0 C 148.837,70.334 287.953,10.04 441.158,10.037 v 0 c 315.614,0.003 571.467,255.86 571.467,571.469 v 0 c 0,37.154 -3.548,73.482 -10.322,108.656 v 0 c -3.906,18.584 -19.11,37.312 -27.913,56.723 v 0 c -13.053,28.777 -20.636,58.72 -26.133,89.309 v 0 c -2.913,19.233 -9.329,159.294 -13.253,167.428 v 0 c -0.197,0.214 -0.639,0.323 -1.286,0.323 v 0 c -6.887,0 -36.979,-12.397 -40.993,-41.679" /></clipPath><radialGradient
       id="radialGradient34"
       spreadMethod="pad"
       gradientTransform="matrix(407.21866,-506.14893,-506.14938,-407.21902,401.90137,626.11133)"
       gradientUnits="userSpaceOnUse"
       r="1"
       cy="0"
       cx="0"
       fy="0"
       fx="0"><stop
         id="stop24"
         offset="0"
         style="stop-opacity:1;stop-color:#f3e444" /><stop
         id="stop26"
         offset="0.237625"
         style="stop-opacity:1;stop-color:#f3e444" /><stop
         id="stop28"
         offset="0.45801663"
         style="stop-opacity:1;stop-color:#f3e444" /><stop
         id="stop30"
         offset="0.66832"
         style="stop-opacity:1;stop-color:#f3e444" /><stop
         id="stop32"
         offset="1"
         style="stop-opacity:1;stop-color:#ccad66" /></radialGradient><clipPath
       id="clipPath44"
       clipPathUnits="userSpaceOnUse"><path
         id="path42"
         d="m 872.193,733.59 c -6.401,-4.352 -22.226,-18.202 -28.689,-51.572 v 0 C 797.818,418.436 568.029,217.968 291.386,217.968 v 0 c -59.781,0.003 -117.372,9.371 -171.397,26.705 v 0 c -8.204,1.749 -16.356,3.653 -24.434,5.747 v 0 c -15.813,4.091 -33.695,5.985 -42.206,4.177 v 0 c -4.519,-1.266 -8.991,-2.907 -13.397,-5.032 v 0 c -2.088,-1.809 -2.487,-3.236 1.152,-6.362 v 0 c 41.665,-32.224 82.125,-67.287 134.072,-80.908 v 0 c 12.444,-3.418 25.048,-6.441 37.804,-9.051 v 0 c 38.268,-7.826 77.891,-11.93 118.474,-11.93 v 0 C 597.319,141.31 822,317.647 894.914,559.748 v 0 c 4.051,13.45 7.632,27.1 10.716,40.937 v 0 c 10.493,49.886 13.19,101.135 6.445,151.024 v 0 c -13.241,-5.936 -26.939,-11.573 -39.882,-18.119" /></clipPath><radialGradient
       id="radialGradient60"
       spreadMethod="pad"
       gradientTransform="matrix(364.81125,-740.48145,-740.48206,-364.81161,222.22559,744.02539)"
       gradientUnits="userSpaceOnUse"
       r="1"
       cy="0"
       cx="0"
       fy="0"
       fx="0"><stop
         id="stop50"
         offset="0"
         style="stop-opacity:1;stop-color:#f3e444" /><stop
         id="stop52"
         offset="0.237625"
         style="stop-opacity:1;stop-color:#f3e444" /><stop
         id="stop54"
         offset="0.50107818"
         style="stop-opacity:1;stop-color:#f3e444" /><stop
         id="stop56"
         offset="0.752472"
         style="stop-opacity:1;stop-color:#f3e444" /><stop
         id="stop58"
         offset="1"
         style="stop-opacity:1;stop-color:#ccad66" /></radialGradient><clipPath
       id="clipPath70"
       clipPathUnits="userSpaceOnUse"><path
         id="path68"
         d="M 0,1024 H 1024 V 0 H 0 Z" /></clipPath><clipPath
       id="clipPath82"
       clipPathUnits="userSpaceOnUse"><path
         id="path80"
         d="m 892.726,1003.95 h 97.431 V 713.594 h -97.431 z" /></clipPath><clipPath
       id="clipPath86"
       clipPathUnits="userSpaceOnUse"><path
         id="path84"
         d="m 922.239,788.92 c -0.087,-18.863 -2.253,-37.974 -7.468,-57.436 -1.348,-4.047 -1.348,-10.789 1.352,-16.181 -1.352,10.785 4.042,24.269 13.483,28.315 25.509,8.053 44.415,-13.863 60.551,-30.024 -0.265,0.531 -0.533,1.064 -0.793,1.594 -4.587,8.238 -8.314,16.358 -11.291,24.376 -13.643,31.406 -23.778,63.02 -29.816,96.629 -2.913,19.234 -9.329,159.295 -13.253,167.428 -2.298,2.502 -37.889,-9.326 -42.278,-41.354 0.406,-10.275 2.175,-22.81 5.771,-38.057 8.29,-47.416 24.769,-85.344 23.35,-126.313 0.257,-2.999 0.405,-5.987 0.392,-8.977" /></clipPath><linearGradient
       id="linearGradient96"
       spreadMethod="pad"
       gradientTransform="matrix(202.86702,-115.28384,-115.28384,-202.86702,906.22852,870.46582)"
       gradientUnits="userSpaceOnUse"
       y2="0"
       x2="1"
       y1="0"
       x1="0"><stop
         id="stop88"
         offset="0"
         style="stop-opacity:1;stop-color:#f1e251" /><stop
         id="stop90"
         offset="0.287125"
         style="stop-opacity:1;stop-color:#f1e251" /><stop
         id="stop92"
         offset="0.965347"
         style="stop-opacity:1;stop-color:#ccad66" /><stop
         id="stop94"
         offset="1"
         style="stop-opacity:1;stop-color:#ccad66" /></linearGradient><clipPath
       id="clipPath126"
       clipPathUnits="userSpaceOnUse"><path
         id="path124"
         d="m 116.586,115.414 c 9.549,-7.448 20.281,-14.729 32.299,-21.777 v 0 C 184.982,72.551 231.429,51.545 287.641,38.303 v 0 c 0,0 -61.462,22.16 -125.307,55.781 v 0 c -12.745,6.735 -28.868,15.757 -41.056,24.074 v 0 c -18.129,12.377 -23.532,17.188 -35.374,26.556 v 0 c -11.836,9.357 -19.782,17.034 -28.205,28.438 v 0 c 15.459,-24.057 32.873,-37.446 58.887,-57.738" /></clipPath><linearGradient
       id="linearGradient136"
       spreadMethod="pad"
       gradientTransform="matrix(-250.15887,125.87848,125.87848,250.15887,296.80273,35.477539)"
       gradientUnits="userSpaceOnUse"
       y2="0"
       x2="1"
       y1="0"
       x1="0"><stop
         id="stop132"
         offset="0"
         style="stop-opacity:1;stop-color:#ffde00" /><stop
         id="stop134"
         offset="1"
         style="stop-opacity:1;stop-color:#ffffff" /></linearGradient><clipPath
       id="clipPath146"
       clipPathUnits="userSpaceOnUse"><path
         id="path144"
         d="M 0,1024 H 1024 V 0 H 0 Z" /></clipPath><clipPath
       id="clipPath158"
       clipPathUnits="userSpaceOnUse"><path
         id="path156"
         d="m 865.122,1003.95 h 125.22 V 695.073 h -125.22 z" /></clipPath><clipPath
       id="clipPath162"
       clipPathUnits="userSpaceOnUse"><path
         id="path160"
         d="m 974.391,746.885 c -13.054,28.777 -20.637,58.72 -26.134,89.308 -2.913,19.234 -9.329,159.295 -13.253,167.428 -2.298,2.502 -37.889,-9.326 -42.278,-41.354 0.406,-10.275 2.175,-22.81 5.771,-38.057 10.898,-62.35 35.991,-108.282 15.871,-166.308 -2.576,-4.173 -3.158,-6.449 -7.481,-8.635 -7.418,-3.753 -20.516,-8.392 -34.36,-15.453 -1.785,-1.181 -4.412,-3.176 -7.405,-6.222 34.441,-1.797 37.643,-16.449 49.649,-32.519 11.097,23.308 48.973,34.059 75.571,22.865 -5.428,9.523 -11.507,19.148 -15.951,28.947" /></clipPath><clipPath
       id="clipPath166"
       clipPathUnits="userSpaceOnUse"><path
         id="path164"
         d="M -32768,32767 H 32767 V -32767 H -32768 Z" /></clipPath><linearGradient
       id="linearGradient174"
       spreadMethod="pad"
       gradientTransform="matrix(57.820343,-290.70651,-290.70651,-57.820343,874.26562,995.74414)"
       gradientUnits="userSpaceOnUse"
       y2="0"
       x2="1"
       y1="0"
       x1="0"><stop
         id="stop168"
         offset="0"
         style="stop-opacity:1;stop-color:#ffffff" /><stop
         id="stop170"
         offset="0.5117116"
         style="stop-opacity:1;stop-color:#ffffff" /><stop
         id="stop172"
         offset="1"
         style="stop-opacity:0;stop-color:#ffffff" /></linearGradient><mask
       id="mask176"
       height="1"
       width="1"
       y="0"
       x="0"
       maskUnits="userSpaceOnUse"><g
         id="g186"><g
           id="g184"
           clip-path="url(#clipPath166)"><g
             id="g182"><g
               id="g180"><path
                 id="path178"
                 style="fill:url(#linearGradient174);stroke:none"
                 d="M -32768,32767 H 32767 V -32767 H -32768 Z" /></g></g></g></g></mask><linearGradient
       id="linearGradient194"
       spreadMethod="pad"
       gradientTransform="matrix(57.820343,-290.70651,-290.70651,-57.820343,874.26562,995.74414)"
       gradientUnits="userSpaceOnUse"
       y2="0"
       x2="1"
       y1="0"
       x1="0"><stop
         id="stop188"
         offset="0"
         style="stop-opacity:1;stop-color:#653f32" /><stop
         id="stop190"
         offset="0.5117116"
         style="stop-opacity:1;stop-color:#653f32" /><stop
         id="stop192"
         offset="1"
         style="stop-opacity:1;stop-color:#653f32" /></linearGradient><clipPath
       id="clipPath220"
       clipPathUnits="userSpaceOnUse"><path
         id="path218"
         d="M 40.9707,928.736 H 976.13 V 211.391 H 40.9707 Z" /></clipPath><clipPath
       id="clipPath236"
       clipPathUnits="userSpaceOnUse"><path
         id="path234"
         d="m 892.726,975.562 h 37.365 V 748.594 h -37.365 z" /></clipPath><clipPath
       id="clipPath240"
       clipPathUnits="userSpaceOnUse"><path
         id="path238"
         d="m 911.765,949.695 c 7.41,-54.08 9.214,-89.608 17.409,-138.927 0.495,-8.848 1.665,-21.826 0.218,-33.743 -3.829,-10.484 -10.419,-24.384 -22.556,-28.431 0.152,0.291 0.285,0.586 0.437,0.881 3.964,2.124 4.601,4.384 7.095,8.427 20.12,58.026 -4.973,103.958 -15.871,166.308 -3.596,15.247 -5.365,27.782 -5.771,38.057 0.912,6.64 5.01,8.314 8.67,11.874 3.897,3.527 8.888,2.221 10.369,-24.446" /></clipPath><linearGradient
       id="linearGradient246"
       spreadMethod="pad"
       gradientTransform="matrix(57.912033,2.0490723,2.0490723,-57.912033,879.17383,861.14355)"
       gradientUnits="userSpaceOnUse"
       y2="0"
       x2="1"
       y1="0"
       x1="0"><stop
         id="stop242"
         offset="0"
         style="stop-opacity:1;stop-color:#ffffff" /><stop
         id="stop244"
         offset="1"
         style="stop-opacity:1;stop-color:#f3e444" /></linearGradient><clipPath
       id="clipPath268"
       clipPathUnits="userSpaceOnUse"><path
         id="path266"
         d="M 495.034,343.504 H 943.091 V 23.8262 H 495.034 Z" /></clipPath><clipPath
       id="clipPath284"
       clipPathUnits="userSpaceOnUse"><path
         id="path282"
         d="m 957.082,689.301 h 44.768 V 376.93 h -44.768 z" /></clipPath><clipPath
       id="clipPath300"
       clipPathUnits="userSpaceOnUse"><path
         id="path298"
         d="M 85.5771,231.633 H 446.149 V 153.017 H 85.5771 Z" /></clipPath><clipPath
       id="clipPath304"
       clipPathUnits="userSpaceOnUse"><path
         id="path302"
         d="m 318.6,209.066 c 0,0 -26.436,-4.539 -80.129,-2.89 -16.514,0.508 -38.467,1.785 -64.006,6.529 -40.492,7.518 -77.666,21.559 -83.602,18.498 -25.024,-12.894 45.237,-46.656 76.412,-56.871 16.26,-5.33 33.526,-7.894 45.174,-9.871 46.597,-7.905 85.668,-9.727 118.441,-11.09 50.028,-2.082 83.703,5.195 107.393,17.041 23.689,11.844 -11.876,26.753 -30.991,32.215 -15.946,4.553 -17.902,14.115 -31.698,13.462 -28.32,-1.347 -33.865,-3.302 -56.994,-7.023" /></clipPath><clipPath
       id="clipPath308"
       clipPathUnits="userSpaceOnUse"><path
         id="path306"
         d="M -32768,32767 H 32767 V -32767 H -32768 Z" /></clipPath><linearGradient
       id="linearGradient314"
       spreadMethod="pad"
       gradientTransform="matrix(191.32899,35.776871,35.776871,-191.32899,184.0752,183.03125)"
       gradientUnits="userSpaceOnUse"
       y2="0"
       x2="1"
       y1="0"
       x1="0"><stop
         id="stop310"
         offset="0"
         style="stop-opacity:1;stop-color:#ffffff" /><stop
         id="stop312"
         offset="1"
         style="stop-opacity:0;stop-color:#ffffff" /></linearGradient><mask
       id="mask316"
       height="1"
       width="1"
       y="0"
       x="0"
       maskUnits="userSpaceOnUse"><g
         id="g326"><g
           id="g324"
           clip-path="url(#clipPath308)"><g
             id="g322"><g
               id="g320"><path
                 id="path318"
                 style="fill:url(#linearGradient314);stroke:none"
                 d="M -32768,32767 H 32767 V -32767 H -32768 Z" /></g></g></g></g></mask><linearGradient
       id="linearGradient332"
       spreadMethod="pad"
       gradientTransform="matrix(191.32899,35.776871,35.776871,-191.32899,184.0752,183.03125)"
       gradientUnits="userSpaceOnUse"
       y2="0"
       x2="1"
       y1="0"
       x1="0"><stop
         id="stop328"
         offset="0"
         style="stop-opacity:1;stop-color:#ffffff" /><stop
         id="stop330"
         offset="1"
         style="stop-opacity:1;stop-color:#ffffff" /></linearGradient><clipPath
       id="clipPath358"
       clipPathUnits="userSpaceOnUse"><path
         id="path356"
         d="m 772.089,699.294 h 126.387 v -282.3 H 772.089 Z" /></clipPath><clipPath
       id="clipPath362"
       clipPathUnits="userSpaceOnUse"><path
         id="path360"
         d="m 797.454,530.491 c 0,0 11.689,24.275 29.668,66.526 5.38,12.643 12.677,32.597 17.982,45.846 8.55,23.26 9.624,71.598 39.551,51.76 19.78,-13.107 12.587,-40.071 12.368,-70.291 -0.083,-11.584 -2.209,-25.788 -5.834,-42.105 -7.251,-32.645 -21.994,-73.707 -49.373,-118.987 -41.068,-67.919 -44.225,-45.807 -48.968,-28.433 -4.736,17.381 -13.345,31.153 -19.664,39.047 -6.312,7.9 16.372,40.839 24.27,56.637" /></clipPath><clipPath
       id="clipPath366"
       clipPathUnits="userSpaceOnUse"><path
         id="path364"
         d="M -32768,32767 H 32767 V -32767 H -32768 Z" /></clipPath><linearGradient
       id="linearGradient372"
       spreadMethod="pad"
       gradientTransform="matrix(-90.930038,-183.23767,-183.23767,90.930038,889.44531,653.22559)"
       gradientUnits="userSpaceOnUse"
       y2="0"
       x2="1"
       y1="0"
       x1="0"><stop
         id="stop368"
         offset="0"
         style="stop-opacity:1;stop-color:#ffffff" /><stop
         id="stop370"
         offset="1"
         style="stop-opacity:0;stop-color:#ffffff" /></linearGradient><mask
       id="mask374"
       height="1"
       width="1"
       y="0"
       x="0"
       maskUnits="userSpaceOnUse"><g
         id="g384"><g
           id="g382"
           clip-path="url(#clipPath366)"><g
             id="g380"><g
               id="g378"><path
                 id="path376"
                 style="fill:url(#linearGradient372);stroke:none"
                 d="M -32768,32767 H 32767 V -32767 H -32768 Z" /></g></g></g></g></mask><linearGradient
       id="linearGradient390"
       spreadMethod="pad"
       gradientTransform="matrix(-90.930038,-183.23767,-183.23767,90.930038,889.44531,653.22559)"
       gradientUnits="userSpaceOnUse"
       y2="0"
       x2="1"
       y1="0"
       x1="0"><stop
         id="stop386"
         offset="0"
         style="stop-opacity:1;stop-color:#ffffff" /><stop
         id="stop388"
         offset="1"
         style="stop-opacity:1;stop-color:#ffffff" /></linearGradient><clipPath
       id="clipPath416"
       clipPathUnits="userSpaceOnUse"><path
         id="path414"
         d="M 35.1201,227.381 H 71.4365 V 178.998 H 35.1201 Z" /></clipPath><clipPath
       id="clipPath420"
       clipPathUnits="userSpaceOnUse"><path
         id="path418"
         d="m 69.016,215.979 c 0,0 -27.582,22.83 -32.11,3.88 -4.529,-18.959 0.234,-24.545 6.724,-33.731 6.483,-9.19 11.275,-9.05 12.488,-2.134 1.211,6.922 -2.388,16.866 2.72,21.955 5.111,5.09 17.904,3.397 10.178,10.03" /></clipPath><radialGradient
       id="radialGradient426"
       spreadMethod="pad"
       gradientTransform="matrix(-34.645981,22.046371,22.046402,34.646011,67.076172,196.71289)"
       gradientUnits="userSpaceOnUse"
       r="1"
       cy="0"
       cx="0"
       fy="0"
       fx="0"><stop
         id="stop422"
         offset="0"
         style="stop-opacity:1;stop-color:#ffde00" /><stop
         id="stop424"
         offset="1"
         style="stop-opacity:1;stop-color:#ffffff" /></radialGradient><clipPath
       id="clipPath468"
       clipPathUnits="userSpaceOnUse"><path
         id="path466"
         d="m 929.64,385.315 h 23.699 V 361.621 H 929.64 Z" /></clipPath><clipPath
       id="clipPath484"
       clipPathUnits="userSpaceOnUse"><path
         id="path482"
         d="m 946.98,409.824 h 17.409 V 392.418 H 946.98 Z" /></clipPath><clipPath
       id="clipPath500"
       clipPathUnits="userSpaceOnUse"><path
         id="path498"
         d="m 957.541,437.214 h 13.434 v -13.438 h -13.434 z" /></clipPath><clipPath
       id="clipPath516"
       clipPathUnits="userSpaceOnUse"><path
         id="path514"
         d="M 95.6738,185.081 H 117.924 V 159.874 H 95.6738 Z" /></clipPath><clipPath
       id="clipPath536"
       clipPathUnits="userSpaceOnUse"><path
         id="path534"
         d="M 78.0361,168.135 H 93.6104 V 149.59 H 78.0361 Z" /></clipPath><clipPath
       id="clipPath552"
       clipPathUnits="userSpaceOnUse"><path
         id="path550"
         d="M 132.857,154.52 H 415.836 V 36.5176 H 132.857 Z" /></clipPath><clipPath
       id="clipPath556"
       clipPathUnits="userSpaceOnUse"><path
         id="path554"
         d="m 415.836,147.33 c -27.558,-3.959 -55.729,-6.017 -84.382,-6.016 -39.197,0 -77.499,3.838 -114.545,11.153 0.026,-0.004 0.055,-0.01 0.079,-0.016 -0.385,0.078 -0.776,0.151 -1.166,0.227 -0.197,0.039 -0.394,0.084 -0.594,0.123 0.015,-0.002 0.031,-0.006 0.046,-0.01 -2.782,0.558 -5.556,1.133 -8.323,1.729 -23.349,-18.028 -48.075,-36.226 -74.094,-54.248 13.032,-8.366 26.423,-16.217 40.147,-23.522 0.112,-0.061 0.223,-0.118 0.332,-0.177 5.415,-2.88 10.881,-5.674 16.398,-8.381 0.129,-0.064 0.26,-0.128 0.391,-0.19 2.664,-1.307 5.342,-2.592 8.03,-3.857 0.098,-0.045 0.198,-0.095 0.295,-0.141 5.472,-2.57 10.993,-5.055 16.556,-7.455 0.333,-0.143 0.663,-0.287 0.996,-0.428 5.494,-2.359 11.03,-4.635 16.611,-6.821 0.332,-0.131 0.664,-0.26 0.997,-0.39 2.501,-0.976 5.011,-1.933 7.531,-2.876 0.347,-0.13 0.691,-0.261 1.039,-0.389 2.834,-1.053 5.678,-2.088 8.534,-3.097 0.007,-0.002 0.013,-0.005 0.02,-0.007 2.725,-0.962 5.46,-1.9 8.202,-2.822 0.507,-0.17 1.015,-0.339 1.521,-0.507 2.704,-0.903 5.418,-1.788 8.141,-2.651 0.047,-0.016 0.09,-0.028 0.137,-0.043 32.003,20.689 86.57,58.921 147.101,110.812" /></clipPath><radialGradient
       id="radialGradient568"
       spreadMethod="pad"
       gradientTransform="matrix(100.13625,-203.25317,-203.25342,-100.13635,192.15527,153.03418)"
       gradientUnits="userSpaceOnUse"
       r="1"
       cy="0"
       cx="0"
       fy="0"
       fx="0"><stop
         id="stop558"
         offset="0"
         style="stop-opacity:1;stop-color:#8b8224" /><stop
         id="stop560"
         offset="0.237625"
         style="stop-opacity:1;stop-color:#8b8224" /><stop
         id="stop562"
         offset="0.50107818"
         style="stop-opacity:1;stop-color:#8b8224" /><stop
         id="stop564"
         offset="0.752472"
         style="stop-opacity:1;stop-color:#8b8224" /><stop
         id="stop566"
         offset="1"
         style="stop-opacity:1;stop-color:#746134" /></radialGradient><clipPath
       id="clipPath590"
       clipPathUnits="userSpaceOnUse"><path
         id="path588"
         d="M 132.857,282.385 H 552.426 V 36.5176 H 132.857 Z" /></clipPath><clipPath
       id="clipPath594"
       clipPathUnits="userSpaceOnUse"><path
         id="path592"
         d="m 215.822,152.678 c -0.197,0.039 -0.394,0.084 -0.594,0.123 0.587,-0.119 1.175,-0.233 1.76,-0.35 -0.385,0.078 -0.776,0.151 -1.166,0.227 m 336.604,129.707 c -77.954,-41.121 -166.77,-64.416 -261.04,-64.416 -2.193,0.002 -27.799,0.256 -29.984,0.281 -17.051,-28.858 -26.419,-42.101 -54.446,-63.738 -23.345,-18.022 -48.083,-36.22 -74.099,-54.24 41.873,-26.883 87.482,-48.456 135.878,-63.754 55.53,35.899 178.991,124.607 283.691,245.867" /></clipPath><radialGradient
       id="radialGradient606"
       spreadMethod="pad"
       gradientTransform="matrix(163.18657,-331.23059,-331.23099,-163.18675,220.77637,279.28809)"
       gradientUnits="userSpaceOnUse"
       r="1"
       cy="0"
       cx="0"
       fy="0"
       fx="0"><stop
         id="stop596"
         offset="0"
         style="stop-opacity:1;stop-color:#b17e2d" /><stop
         id="stop598"
         offset="0.237625"
         style="stop-opacity:1;stop-color:#b17e2d" /><stop
         id="stop600"
         offset="0.50107818"
         style="stop-opacity:1;stop-color:#b17e2d" /><stop
         id="stop602"
         offset="0.752472"
         style="stop-opacity:1;stop-color:#b17e2d" /><stop
         id="stop604"
         offset="1"
         style="stop-opacity:1;stop-color:#9e6e35" /></radialGradient><clipPath
       id="clipPath628"
       clipPathUnits="userSpaceOnUse"><path
         id="path626"
         d="M 56.544,747.716 C 28.942,570.89 149.812,409.278 356.179,377.061 v 0 c 60.458,-9.431 121.534,-6.701 178.383,6.307 v 0 C 517.61,363.631 370.822,196.367 150.025,58.209 v 0 c 0,0 -26.118,-16.492 4.12,-26.111 v 0 L 288.834,11.481 c 0,0 6.868,-4.124 32.987,8.243 v 0 c 26.112,12.374 438.102,271.356 480.71,601.208 v 0 l 1.308,10.138 c 27.604,176.828 -90.323,342.472 -323.671,378.496 v 0 c -22.866,3.53 -45.527,5.235 -67.784,5.235 v 0 C 233.732,1014.802 81.086,904.954 56.544,747.716 M 387.735,484.715 c -120.078,20.756 -189.369,122.998 -171.3,238.752 v 0 c 18.067,115.752 109.508,193.727 250.703,175.558 v 0 C 603.771,881.44 670.493,771.166 652.428,655.412 v 0 C 636.616,554.097 557.347,480.074 440.102,480.07 v 0 c -16.712,-10e-4 -34.185,1.502 -52.367,4.645" /></clipPath><linearGradient
       id="linearGradient642"
       spreadMethod="pad"
       gradientTransform="matrix(-4.58e-5,-936.66656,-936.66656,4.58e-5,430.21777,1001.1523)"
       gradientUnits="userSpaceOnUse"
       y2="0"
       x2="1"
       y1="0"
       x1="0"><stop
         id="stop634"
         offset="0"
         style="stop-opacity:1;stop-color:#e4232f" /><stop
         id="stop636"
         offset="0.237625"
         style="stop-opacity:1;stop-color:#e4232f" /><stop
         id="stop638"
         offset="0.62774113"
         style="stop-opacity:1;stop-color:#e4232f" /><stop
         id="stop640"
         offset="1"
         style="stop-opacity:1;stop-color:#cc3545" /></linearGradient><clipPath
       id="clipPath652"
       clipPathUnits="userSpaceOnUse"><path
         id="path650"
         d="M 0,1024 H 1024 V 0 H 0 Z" /></clipPath></defs><g
     transform="matrix(1.3333333,0,0,-1.3333333,0,1365.3333)"
     id="g10"><g
       id="g12"><g
         clip-path="url(#clipPath18)"
         id="g14"><g
           id="g20"><g
             id="g22"><path
               id="path36"
               style="fill:url(#radialGradient34);stroke:none"
               d="m 892.725,962.266 c 0.407,-10.274 2.176,-22.809 5.772,-38.056 v 0 c 11.282,-64.549 37.794,-111.503 13.578,-172.501 v 0 c -16.299,-41.055 1.348,-109.227 -6.445,-151.024 v 0 c -3.084,-13.837 -6.665,-27.487 -10.716,-40.937 v 0 C 822,317.647 597.319,141.31 331.454,141.314 v 0 c -39.578,0 -78.248,3.906 -115.631,11.364 v 0 c -12.465,2.481 -24.785,5.357 -36.946,8.622 v 0 c -51.61,14.616 -95.672,44.411 -133.864,83.392 v 0 c -1.346,2.692 6.743,4.039 0,6.742 v 0 c -1.544,0.77 -3.974,0.658 -6.731,0.545 v 0 c -2.056,-0.083 -4.295,-0.166 -6.485,0.116 v 0 c 0,0 -2.947,1.427 -4.468,1.115 v 0 C 12.652,241.993 9.954,221.765 16.701,206.932 v 0 c 1.342,-4.045 8.09,-4.045 10.784,-8.092 v 0 c 6.052,-10.265 9.889,-19.846 18.735,-30.364 v 0 C 148.837,70.334 287.953,10.04 441.158,10.037 v 0 c 315.614,0.003 571.467,255.86 571.467,571.469 v 0 c 0,37.154 -3.548,73.482 -10.322,108.656 v 0 c -3.906,18.584 -19.11,37.312 -27.913,56.723 v 0 c -13.053,28.777 -20.636,58.72 -26.133,89.309 v 0 c -2.913,19.233 -9.329,159.294 -13.253,167.428 v 0 c -0.197,0.214 -0.639,0.323 -1.286,0.323 v 0 c -6.887,0 -36.979,-12.397 -40.993,-41.679" /></g></g></g></g><g
       id="g38"><g
         clip-path="url(#clipPath44)"
         id="g40"><g
           id="g46"><g
             id="g48"><path
               id="path62"
               style="fill:url(#radialGradient60);stroke:none"
               d="m 872.193,733.59 c -6.401,-4.352 -22.226,-18.202 -28.689,-51.572 v 0 C 797.818,418.436 568.029,217.968 291.386,217.968 v 0 c -59.781,0.003 -117.372,9.371 -171.397,26.705 v 0 c -8.204,1.749 -16.356,3.653 -24.434,5.747 v 0 c -15.813,4.091 -33.695,5.985 -42.206,4.177 v 0 c -4.519,-1.266 -8.991,-2.907 -13.397,-5.032 v 0 c -2.088,-1.809 -2.487,-3.236 1.152,-6.362 v 0 c 41.665,-32.224 82.125,-67.287 134.072,-80.908 v 0 c 12.444,-3.418 25.048,-6.441 37.804,-9.051 v 0 c 38.268,-7.826 77.891,-11.93 118.474,-11.93 v 0 C 597.319,141.31 822,317.647 894.914,559.748 v 0 c 4.051,13.45 7.632,27.1 10.716,40.937 v 0 c 10.493,49.886 13.19,101.135 6.445,151.024 v 0 c -13.241,-5.936 -26.939,-11.573 -39.882,-18.119" /></g></g></g></g><g
       id="g64"><g
         clip-path="url(#clipPath70)"
         id="g66"><g
           transform="translate(843.5039,682.0186)"
           id="g72"><path
             id="path74"
             style="fill:#ffea87;fill-opacity:1;fill-rule:nonzero;stroke:none"
             d="m 0,0 c -45.687,-263.582 -275.476,-464.05 -552.118,-464.05 -59.78,0.002 -117.372,9.37 -171.397,26.704 -8.204,1.749 -16.356,3.654 -24.434,5.747 -15.813,4.091 -33.696,5.985 -42.205,4.178 -0.805,-0.225 -1.606,-0.478 -2.405,-0.727 73.19,-33.607 154.627,-52.355 240.441,-52.356 301.816,0 549.479,231.789 574.731,527.066 C 15.135,39.329 4.89,25.253 0,0" /></g><g
           id="g76"><g
             id="g78" /><g
             id="g110"><g
               style="opacity:0.89999402"
               id="g108"
               clip-path="url(#clipPath82)"><g
                 id="g106"><g
                   id="g104"
                   clip-path="url(#clipPath86)"><g
                     id="g102"><g
                       id="g100"><path
                         id="path98"
                         style="fill:url(#linearGradient96);stroke:none"
                         d="m 922.239,788.92 c -0.087,-18.863 -2.253,-37.974 -7.468,-57.436 -1.348,-4.047 -1.348,-10.789 1.352,-16.181 -1.352,10.785 4.042,24.269 13.483,28.315 25.509,8.053 44.415,-13.863 60.551,-30.024 -0.265,0.531 -0.533,1.064 -0.793,1.594 -4.587,8.238 -8.314,16.358 -11.291,24.376 -13.643,31.406 -23.778,63.02 -29.816,96.629 -2.913,19.234 -9.329,159.295 -13.253,167.428 -2.298,2.502 -37.889,-9.326 -42.278,-41.354 0.406,-10.275 2.175,-22.81 5.771,-38.057 8.29,-47.416 24.769,-85.344 23.35,-126.313 0.257,-2.999 0.405,-5.987 0.392,-8.977" /></g></g></g></g></g></g></g><g
           transform="translate(27.3281,253.2109)"
           id="g112"><path
             id="path114"
             style="fill:#923c19;fill-opacity:1;fill-rule:nonzero;stroke:none"
             d="M 0,0 C -13.326,-11.218 -17.374,-31.445 -10.627,-46.279 -9.285,-30.096 -6.584,-13.92 2.738,-0.416 1.822,-0.105 0.747,0.151 0,0" /></g><g
           transform="translate(906.3242,603.8711)"
           id="g116"><path
             id="path118"
             style="fill:#fff8dc;fill-opacity:1;fill-rule:nonzero;stroke:none"
             d="M 0,0 C -0.958,-4.408 -1.952,-8.801 -3.017,-13.176 -65.459,-271.047 -297.8,-462.562 -574.87,-462.557 c 0,0 -26.286,-0.097 -42.864,1.412 -16.579,1.51 -19.926,-0.029 -15.027,-0.787 4.899,-0.747 17.328,-3.761 55.737,-6.224 291.912,-18.672 518.095,175.193 577.157,452.847 1.08,5.08 2.09,10.182 3.055,15.309 -1.485,2.202 2.563,6.252 -1.485,8.949 0,-2.697 0,-4.047 -1.285,-6.997 z" /></g></g></g><g
       id="g120"><g
         clip-path="url(#clipPath126)"
         id="g122"><g
           id="g128"><g
             id="g130"><path
               id="path138"
               style="fill:url(#linearGradient136);stroke:none"
               d="m 116.586,115.414 c 9.549,-7.448 20.281,-14.729 32.299,-21.777 v 0 C 184.982,72.551 231.429,51.545 287.641,38.303 v 0 c 0,0 -61.462,22.16 -125.307,55.781 v 0 c -12.745,6.735 -28.868,15.757 -41.056,24.074 v 0 c -18.129,12.377 -23.532,17.188 -35.374,26.556 v 0 c -11.836,9.357 -19.782,17.034 -28.205,28.438 v 0 c 15.459,-24.057 32.873,-37.446 58.887,-57.738" /></g></g></g></g><g
       id="g140"><g
         clip-path="url(#clipPath146)"
         id="g142"><g
           transform="translate(1002.3027,690.1621)"
           id="g148"><path
             id="path150"
             style="fill:#cd9a35;fill-opacity:1;fill-rule:nonzero;stroke:none"
             d="m 0,0 c -3.905,18.584 -19.109,37.313 -27.912,56.723 -13.054,28.777 -20.637,58.72 -26.134,89.308 -2.913,19.234 -9.329,159.295 -13.253,167.428 -1.001,1.095 -8.34,-0.544 -16.658,-5.395 1.991,-9.613 3.606,-19.481 3.831,-22.58 0.813,-11.014 1.532,-19.298 2.864,-31.348 8.756,-40.429 0.836,-82.577 15.355,-122.089 29.029,-75.074 61.382,-147.538 59.629,-228.871 0.031,-14.424 -0.497,-28.727 -1.543,-42.889 -21.98,-297.363 -270.677,-531.799 -574.236,-531.797 -93.844,0 -184.782,24.805 -263.08,64.578 82.743,-46.597 178.26,-73.193 279.992,-73.193 315.615,0.002 571.467,255.859 571.467,571.469 C 10.322,-71.502 6.774,-35.174 0,0" /></g><g
           id="g152"><g
             id="g154" /><g
             id="g212"><g
               style="opacity:0.5"
               id="g210"
               clip-path="url(#clipPath158)"><g
                 id="g208"><g
                   id="g206"
                   clip-path="url(#clipPath162)"><g
                     id="g204"><g
                       id="g196" /><g
                       id="g202"
                       mask="url(#mask176)"><g
                         id="g200"><path
                           id="path198"
                           style="fill:url(#linearGradient194);stroke:none"
                           d="m 974.391,746.885 c -13.054,28.777 -20.637,58.72 -26.134,89.308 -2.913,19.234 -9.329,159.295 -13.253,167.428 -2.298,2.502 -37.889,-9.326 -42.278,-41.354 0.406,-10.275 2.175,-22.81 5.771,-38.057 10.898,-62.35 35.991,-108.282 15.871,-166.308 -2.576,-4.173 -3.158,-6.449 -7.481,-8.635 -7.418,-3.753 -20.516,-8.392 -34.36,-15.453 -1.785,-1.181 -4.412,-3.176 -7.405,-6.222 34.441,-1.797 37.643,-16.449 49.649,-32.519 11.097,23.308 48.973,34.059 75.571,22.865 -5.428,9.523 -11.507,19.148 -15.951,28.947" /></g></g></g></g></g></g></g></g><g
           id="g214"><g
             id="g216" /><g
             id="g228"><g
               style="opacity:0.14999402"
               id="g226"
               clip-path="url(#clipPath220)"><g
                 id="g224"
                 transform="translate(41.0449,250.3691)"><path
                   id="path222"
                   style="fill:#009430;fill-opacity:1;fill-rule:nonzero;stroke:none"
                   d="M 0,0 37.387,2.705 C 17.346,7.673 0,0 0,0 M 41.531,-38.979 C 28.24,-28.604 14.757,-16.47 -0.074,-7.03 c 6.742,-9.44 16.181,-16.177 25.582,-23.07 8.782,-5.672 16.023,-8.879 16.023,-8.879 m 833.042,482.761 c -2.195,-31.44 -2.195,-63.803 -9.658,-94.931 -2.224,-12.167 -4.736,-24.442 -7.552,-36.106 -2.815,-11.664 -4.032,-21.984 -7.458,-31.722 0,0 6.199,11.307 13.999,37.858 2.602,8.853 5.166,19.32 7.39,31.49 3.784,21.518 3.784,44.44 4.597,66.115 -0.198,8.641 -0.628,17.735 -1.318,27.296 m 0.1,20.974 c 1.989,11.291 4.9,19.882 17.035,23.929 17.527,4.045 28.548,-2.533 43.377,-11.976 -14.829,13.487 -28.003,23.725 -48.772,15.574 -6.121,-4.701 -11.108,-9.359 -11.64,-27.527 m 32.859,95.889 c 5.13,-9.977 3.197,-17.299 5.753,-21.618 -25.622,52.143 -24.852,83.813 -26.523,139.34 0,0 8.722,-94.301 20.77,-117.722" /></g></g></g></g><g
           id="g230"><g
             id="g232" /><g
             id="g260"><g
               style="opacity:0.75"
               id="g258"
               clip-path="url(#clipPath236)"><g
                 id="g256"><g
                   id="g254"
                   clip-path="url(#clipPath240)"><g
                     id="g252"><g
                       id="g250"><path
                         id="path248"
                         style="fill:url(#linearGradient246);stroke:none"
                         d="m 911.765,949.695 c 7.41,-54.08 9.214,-89.608 17.409,-138.927 0.495,-8.848 1.665,-21.826 0.218,-33.743 -3.829,-10.484 -10.419,-24.384 -22.556,-28.431 0.152,0.291 0.285,0.586 0.437,0.881 3.964,2.124 4.601,4.384 7.095,8.427 20.12,58.026 -4.973,103.958 -15.871,166.308 -3.596,15.247 -5.365,27.782 -5.771,38.057 0.912,6.64 5.01,8.314 8.67,11.874 3.897,3.527 8.888,2.221 10.369,-24.446" /></g></g></g></g></g></g></g><g
           id="g262"><g
             id="g264" /><g
             id="g276"><g
               style="opacity:0.39999402"
               id="g274"
               clip-path="url(#clipPath268)"><g
                 id="g272"
                 transform="translate(495.0342,23.8262)"><path
                   id="path270"
                   style="fill:#ffffff;fill-opacity:1;fill-rule:nonzero;stroke:none"
                   d="M 0,0 C 0,0 299.726,23.016 448.057,319.678 448.057,319.678 332.806,83.637 0,0" /></g></g></g></g><g
           id="g278"><g
             id="g280" /><g
             id="g292"><g
               style="opacity:0.39999402"
               id="g290"
               clip-path="url(#clipPath284)"><g
                 id="g288"
                 transform="translate(986.5596,689.3008)"><path
                   id="path286"
                   style="fill:#ffffff;fill-opacity:1;fill-rule:nonzero;stroke:none"
                   d="m 0,0 c 5.653,-14.736 9.299,-30.164 11.568,-45.763 2.274,-15.603 3.187,-31.366 3.66,-46.723 0.236,-14.067 -0.176,-29.34 -1.575,-45.56 -4.193,-48.648 -15.566,-112.5 -43.131,-174.325 0,0 23.238,84.975 33.702,178.654 0.951,8.514 1.755,17.185 2.375,25.977 1.145,13.543 1.719,27.054 1.571,40.545 C 7.978,-53.712 6.946,-40.277 4.95,-26.891 3.674,-17.887 2.025,-8.912 0,0" /></g></g></g></g><g
           id="g294"><g
             id="g296" /><g
             id="g350"><g
               style="opacity:0.60000598"
               id="g348"
               clip-path="url(#clipPath300)"><g
                 id="g346"><g
                   id="g344"
                   clip-path="url(#clipPath304)"><g
                     id="g342"><g
                       id="g334" /><g
                       id="g340"
                       mask="url(#mask316)"><g
                         id="g338"><path
                           id="path336"
                           style="fill:url(#linearGradient332);stroke:none"
                           d="m 318.6,209.066 c 0,0 -26.436,-4.539 -80.129,-2.89 -16.514,0.508 -38.467,1.785 -64.006,6.529 -40.492,7.518 -77.666,21.559 -83.602,18.498 -25.024,-12.894 45.237,-46.656 76.412,-56.871 16.26,-5.33 33.526,-7.894 45.174,-9.871 46.597,-7.905 85.668,-9.727 118.441,-11.09 50.028,-2.082 83.703,5.195 107.393,17.041 23.689,11.844 -11.876,26.753 -30.991,32.215 -15.946,4.553 -17.902,14.115 -31.698,13.462 -28.32,-1.347 -33.865,-3.302 -56.994,-7.023" /></g></g></g></g></g></g></g></g><g
           id="g352"><g
             id="g354" /><g
             id="g408"><g
               style="opacity:0.80000299"
               id="g406"
               clip-path="url(#clipPath358)"><g
                 id="g404"><g
                   id="g402"
                   clip-path="url(#clipPath362)"><g
                     id="g400"><g
                       id="g392" /><g
                       id="g398"
                       mask="url(#mask374)"><g
                         id="g396"><path
                           id="path394"
                           style="fill:url(#linearGradient390);stroke:none"
                           d="m 797.454,530.491 c 0,0 11.689,24.275 29.668,66.526 5.38,12.643 12.677,32.597 17.982,45.846 8.55,23.26 9.624,71.598 39.551,51.76 19.78,-13.107 12.587,-40.071 12.368,-70.291 -0.083,-11.584 -2.209,-25.788 -5.834,-42.105 -7.251,-32.645 -21.994,-73.707 -49.373,-118.987 -41.068,-67.919 -44.225,-45.807 -48.968,-28.433 -4.736,17.381 -13.345,31.153 -19.664,39.047 -6.312,7.9 16.372,40.839 24.27,56.637" /></g></g></g></g></g></g></g></g><g
           id="g410"><g
             id="g412" /><g
             id="g440"><g
               style="opacity:0.69999701"
               id="g438"
               clip-path="url(#clipPath416)"><g
                 id="g436"><g
                   id="g434"
                   clip-path="url(#clipPath420)"><g
                     id="g432"><g
                       id="g430"><path
                         id="path428"
                         style="fill:url(#radialGradient426);stroke:none"
                         d="m 69.016,215.979 c 0,0 -27.582,22.83 -32.11,3.88 -4.529,-18.959 0.234,-24.545 6.724,-33.731 6.483,-9.19 11.275,-9.05 12.488,-2.134 1.211,6.922 -2.388,16.866 2.72,21.955 5.111,5.09 17.904,3.397 10.178,10.03" /></g></g></g></g></g></g></g><g
           transform="translate(944.4219,716.4326)"
           id="g442"><path
             id="path444"
             style="fill:#f3e444;fill-opacity:1;fill-rule:nonzero;stroke:none"
             d="m 0,0 c 0.361,-6.459 -4.397,-11.642 -10.62,-11.575 -6.229,0.072 -11.527,5.373 -11.832,11.842 -0.307,6.479 4.425,11.656 10.579,11.572 C -5.71,11.759 -0.375,6.462 0,0" /></g><g
           transform="translate(763.708,436.8926)"
           id="g446"><path
             id="path448"
             style="fill:#fff8dc;fill-opacity:1;fill-rule:nonzero;stroke:none"
             d="m 0,0 c 0,-4.579 -3.715,-8.289 -8.294,-8.289 -4.573,0 -8.286,3.71 -8.286,8.289 0,4.58 3.713,8.289 8.286,8.289 C -3.715,8.289 0,4.58 0,0" /></g><g
           transform="translate(779.4385,460.6309)"
           id="g450"><path
             id="path452"
             style="fill:#fff8dc;fill-opacity:1;fill-rule:nonzero;stroke:none"
             d="m 0,0 c 0,-3.771 -3.055,-6.836 -6.835,-6.836 -3.778,0 -6.834,3.065 -6.834,6.836 0,3.777 3.056,6.84 6.834,6.84 C -3.055,6.84 0,3.777 0,0" /></g><g
           transform="translate(792.7656,482.665)"
           id="g454"><path
             id="path456"
             style="fill:#fff8dc;fill-opacity:1;fill-rule:nonzero;stroke:none"
             d="m 0,0 c 0.277,-3.264 -2.146,-6.136 -5.405,-6.411 -3.271,-0.277 -6.141,2.144 -6.414,5.409 -0.278,3.269 2.143,6.14 5.408,6.412 C -3.144,5.69 -0.279,3.265 0,0" /></g><g
           transform="translate(802.5508,500.5439)"
           id="g458"><path
             id="path460"
             style="fill:#fff8dc;fill-opacity:1;fill-rule:nonzero;stroke:none"
             d="m 0,0 c 0.23,-2.688 -1.77,-5.058 -4.458,-5.284 -2.694,-0.231 -5.063,1.767 -5.296,4.46 -0.228,2.696 1.772,5.063 4.466,5.29 C -2.592,4.694 -0.227,2.696 0,0" /></g><g
           id="g462"><g
             id="g464" /><g
             id="g476"><g
               style="opacity:0.30000299"
               id="g474"
               clip-path="url(#clipPath468)"><g
                 id="g472"
                 transform="translate(953.3389,373.4688)"><path
                   id="path470"
                   style="fill:#f3e444;fill-opacity:1;fill-rule:nonzero;stroke:none"
                   d="m 0,0 c 0,-6.547 -5.306,-11.848 -11.852,-11.848 -6.542,0 -11.847,5.301 -11.847,11.848 0,6.543 5.305,11.847 11.848,11.847 C -5.306,11.847 0,6.543 0,0" /></g></g></g></g><g
           id="g478"><g
             id="g480" /><g
             id="g492"><g
               style="opacity:0.30000299"
               id="g490"
               clip-path="url(#clipPath484)"><g
                 id="g488"
                 transform="translate(964.3887,401.123)"><path
                   id="path486"
                   style="fill:#f3e444;fill-opacity:1;fill-rule:nonzero;stroke:none"
                   d="m 0,0 c 0,-4.807 -3.899,-8.705 -8.703,-8.705 -4.81,0 -8.705,3.898 -8.705,8.705 0,4.808 3.895,8.701 8.705,8.701 C -3.899,8.701 0,4.808 0,0" /></g></g></g></g><g
           id="g494"><g
             id="g496" /><g
             id="g508"><g
               style="opacity:0.30000299"
               id="g506"
               clip-path="url(#clipPath500)"><g
                 id="g504"
                 transform="translate(970.9746,430.4941)"><path
                   id="path502"
                   style="fill:#f3e444;fill-opacity:1;fill-rule:nonzero;stroke:none"
                   d="m 0,0 c 0,-3.709 -3.011,-6.718 -6.719,-6.718 -3.714,0 -6.715,3.009 -6.715,6.718 0,3.71 3.001,6.72 6.715,6.72 C -3.011,6.72 0,3.71 0,0" /></g></g></g></g><g
           id="g510"><g
             id="g512" /><g
             id="g524"><g
               style="opacity:0.60000598"
               id="g522"
               clip-path="url(#clipPath516)"><g
                 id="g520"
                 transform="translate(117.9238,170.2705)"><path
                   id="path518"
                   style="fill:#f3e444;fill-opacity:1;fill-rule:nonzero;stroke:none"
                   d="m 0,0 c -0.055,-6.792 -5.146,-11.442 -11.301,-10.194 -6.162,1.242 -11.029,7.997 -10.948,14.88 0.073,6.887 5.056,11.223 11.192,9.881 C -4.924,13.224 0.057,6.79 0,0" /></g></g></g></g><g
           transform="translate(142.5732,153.9072)"
           id="g526"><path
             id="path528"
             style="fill:#f3e444;fill-opacity:1;fill-rule:nonzero;stroke:none"
             d="m 0,0 c -0.021,-4.712 -3.7,-8.249 -8.177,-7.785 -4.476,0.459 -8.041,4.815 -8,9.616 0.051,4.797 3.672,8.154 8.119,7.607 C -3.601,8.891 0.021,4.714 0,0" /></g><g
           id="g530"><g
             id="g532" /><g
             id="g544"><g
               style="opacity:0.5"
               id="g542"
               clip-path="url(#clipPath536)"><g
                 id="g540"
                 transform="translate(93.6084,157.0967)"><path
                   id="path538"
                   style="fill:#f3e444;fill-opacity:1;fill-rule:nonzero;stroke:none"
                   d="m 0,0 c -0.098,-4.989 -3.685,-8.309 -7.999,-7.339 -4.309,0.957 -7.689,5.904 -7.57,10.967 0.113,5.055 3.668,8.256 7.955,7.214 C -3.325,9.809 0.098,4.983 0,0" /></g></g></g></g><g
           id="g546"><g
             id="g548" /><g
             id="g582"><g
               style="opacity:0.77000397"
               id="g580"
               clip-path="url(#clipPath552)"><g
                 id="g578"><g
                   id="g576"
                   clip-path="url(#clipPath556)"><g
                     id="g574"><g
                       id="g572"><path
                         id="path570"
                         style="fill:url(#radialGradient568);stroke:none"
                         d="m 415.836,147.33 c -27.558,-3.959 -55.729,-6.017 -84.382,-6.016 -39.197,0 -77.499,3.838 -114.545,11.153 0.026,-0.004 0.055,-0.01 0.079,-0.016 -0.385,0.078 -0.776,0.151 -1.166,0.227 -0.197,0.039 -0.394,0.084 -0.594,0.123 0.015,-0.002 0.031,-0.006 0.046,-0.01 -2.782,0.558 -5.556,1.133 -8.323,1.729 -23.349,-18.028 -48.075,-36.226 -74.094,-54.248 13.032,-8.366 26.423,-16.217 40.147,-23.522 0.112,-0.061 0.223,-0.118 0.332,-0.177 5.415,-2.88 10.881,-5.674 16.398,-8.381 0.129,-0.064 0.26,-0.128 0.391,-0.19 2.664,-1.307 5.342,-2.592 8.03,-3.857 0.098,-0.045 0.198,-0.095 0.295,-0.141 5.472,-2.57 10.993,-5.055 16.556,-7.455 0.333,-0.143 0.663,-0.287 0.996,-0.428 5.494,-2.359 11.03,-4.635 16.611,-6.821 0.332,-0.131 0.664,-0.26 0.997,-0.39 2.501,-0.976 5.011,-1.933 7.531,-2.876 0.347,-0.13 0.691,-0.261 1.039,-0.389 2.834,-1.053 5.678,-2.088 8.534,-3.097 0.007,-0.002 0.013,-0.005 0.02,-0.007 2.725,-0.962 5.46,-1.9 8.202,-2.822 0.507,-0.17 1.015,-0.339 1.521,-0.507 2.704,-0.903 5.418,-1.788 8.141,-2.651 0.047,-0.016 0.09,-0.028 0.137,-0.043 32.003,20.689 86.57,58.921 147.101,110.812" /></g></g></g></g></g></g></g><g
           id="g584"><g
             id="g586" /><g
             id="g620"><g
               style="opacity:0.36000103"
               id="g618"
               clip-path="url(#clipPath590)"><g
                 id="g616"><g
                   id="g614"
                   clip-path="url(#clipPath594)"><g
                     id="g612"><g
                       id="g610"><path
                         id="path608"
                         style="fill:url(#radialGradient606);stroke:none"
                         d="m 215.822,152.678 c -0.197,0.039 -0.394,0.084 -0.594,0.123 0.587,-0.119 1.175,-0.233 1.76,-0.35 -0.385,0.078 -0.776,0.151 -1.166,0.227 m 336.604,129.707 c -77.954,-41.121 -166.77,-64.416 -261.04,-64.416 -2.193,0.002 -27.799,0.256 -29.984,0.281 -17.051,-28.858 -26.419,-42.101 -54.446,-63.738 -23.345,-18.022 -48.083,-36.22 -74.099,-54.24 41.873,-26.883 87.482,-48.456 135.878,-63.754 55.53,35.899 178.991,124.607 283.691,245.867" /></g></g></g></g></g></g></g></g></g><g
       id="g622"><g
         clip-path="url(#clipPath628)"
         id="g624"><g
           id="g630"><g
             id="g632"><path
               id="path644"
               style="fill:url(#linearGradient642);stroke:none"
               d="M 56.544,747.716 C 28.942,570.89 149.812,409.278 356.179,377.061 v 0 c 60.458,-9.431 121.534,-6.701 178.383,6.307 v 0 C 517.61,363.631 370.822,196.367 150.025,58.209 v 0 c 0,0 -26.118,-16.492 4.12,-26.111 v 0 L 288.834,11.481 c 0,0 6.868,-4.124 32.987,8.243 v 0 c 26.112,12.374 438.102,271.356 480.71,601.208 v 0 l 1.308,10.138 c 27.604,176.828 -90.323,342.472 -323.671,378.496 v 0 c -22.866,3.53 -45.527,5.235 -67.784,5.235 v 0 C 233.732,1014.802 81.086,904.954 56.544,747.716 M 387.735,484.715 c -120.078,20.756 -189.369,122.998 -171.3,238.752 v 0 c 18.067,115.752 109.508,193.727 250.703,175.558 v 0 C 603.771,881.44 670.493,771.166 652.428,655.412 v 0 C 636.616,554.097 557.347,480.074 440.102,480.07 v 0 c -16.712,-10e-4 -34.185,1.502 -52.367,4.645" /></g></g></g></g><g
       id="g646"><g
         clip-path="url(#clipPath652)"
         id="g648"><g
           transform="translate(211.9141,942.1934)"
           id="g654"><path
             id="path656"
             style="fill:#ffffff;fill-opacity:1;fill-rule:nonzero;stroke:none"
             d="m 0,0 c 0,0 -117.926,-57.619 -129.988,-186.26 0,0 13.404,105.862 129.988,186.26" /></g><g
           transform="translate(213.6719,73.4316)"
           id="g658"><path
             id="path660"
             style="fill:#ffffff;fill-opacity:1;fill-rule:nonzero;stroke:none"
             d="M 0,0 C 0,0 112.249,43.561 177.671,141.498 177.671,141.498 122.365,73.479 0,0" /></g></g></g></g></svg>